<svg width="27" height="24" viewBox="0 0 27 24" fill="none" xmlns="http://www.w3.org/2000/svg">
<path d="M24.5359 10.5074H6.38467L14.3147 3.18738C14.9484 2.60238 14.9484 1.64238 14.3147 1.05738C14.0111 0.776502 13.5989 0.618652 13.169 0.618652C12.7392 0.618652 12.327 0.776502 12.0234 1.05738L1.31467 10.9424C0.680918 11.5274 0.680918 12.4724 1.31467 13.0574L12.0234 22.9424C12.6572 23.5274 13.6809 23.5274 14.3147 22.9424C14.9484 22.3574 14.9484 21.4124 14.3147 20.8274L6.38467 13.5074H24.5359C25.4297 13.5074 26.1609 12.8324 26.1609 12.0074C26.1609 11.1824 25.4297 10.5074 24.5359 10.5074Z" fill="#BBC8D4"/>
</svg>
