<svg width="27" height="24" viewBox="0 0 27 24" fill="none" xmlns="http://www.w3.org/2000/svg">
<path d="M2.4646 13.5001H20.6159L12.6858 20.8201C12.0521 21.4051 12.0521 22.3651 12.6858 22.9501C13.3196 23.5351 14.3433 23.5351 14.9771 22.9501L25.6859 13.0651C26.3196 12.4801 26.3196 11.5351 25.6859 10.9501L14.9934 1.05006C14.6897 0.769177 14.2776 0.611328 13.8477 0.611328C13.4179 0.611328 13.0057 0.769177 12.7021 1.05006C12.0683 1.63506 12.0683 2.58006 12.7021 3.16506L20.6159 10.5001H2.4646C1.57085 10.5001 0.8396 11.1751 0.8396 12.0001C0.8396 12.8251 1.57085 13.5001 2.4646 13.5001Z" fill="#553D67"/>
</svg>
