<svg width="75" height="71" viewBox="0 0 75 71" fill="none" xmlns="http://www.w3.org/2000/svg">
<path d="M57.8001 6.9068C57.3201 6.29893 56.5701 5.9342 55.7601 5.9342H30.9001C29.8201 5.9342 28.8701 6.57949 28.5301 7.53338L24.3701 19.2233C23.9301 20.439 24.6301 21.767 25.9301 22.1785C26.1901 22.2626 26.4701 22.3 26.7401 22.3H51.6001C52.6801 22.3 53.6301 21.6548 53.9701 20.7009L58.1301 9.01098C58.3901 8.30024 58.2601 7.51468 57.8001 6.9068ZM51.6001 19.9621H26.7401L30.9001 8.27218H55.7601L51.6001 19.9621Z" fill="#553D67"/>
<path d="M68.83 4.70924L58.67 33.2324C58.45 33.8496 57.74 34.177 57.08 33.9712C56.42 33.7655 56.07 33.1015 56.29 32.4843L66.46 3.97045C66.6 3.61507 66.54 3.2223 66.3 2.92304C66.07 2.61443 65.69 2.42739 65.29 2.43674H23.05C22.51 2.43674 22.03 2.7547 21.86 3.23165L3.54 54.6669C3.4 55.0223 3.46 55.415 3.7 55.7143C3.93 56.0136 4.31 56.2006 4.71 56.2006H47.5C48.19 56.2006 48.75 56.7243 48.75 57.3696C48.75 58.0149 48.19 58.5386 47.5 58.5386H5.81C3.92 58.7443 2.5 60.2406 2.5 62.0175V64.3741C2.51 66.31 4.18 67.8717 6.25 67.8811H54.1L55.05 65.1971C55.27 64.5799 55.98 64.2526 56.64 64.4583C57.3 64.664 57.65 65.328 57.43 65.9452L56.19 69.4241C56.01 69.9011 55.53 70.219 55 70.2284H6.25C2.8 70.2284 0 67.6099 0 64.3835V62.0268C0 60.3248 0.8 58.7069 2.19 57.6127C2 57.4444 1.83 57.2667 1.67 57.0797C0.96 56.1725 0.77 54.9942 1.16 53.9281L19.5 2.49285C20 1.05266 21.44 0.0800705 23.05 0.0894223H65.29C67.36 0.0894223 69.04 1.66989 69.03 3.60572C69.03 3.9798 68.96 4.35387 68.83 4.70924Z" fill="#553D67"/>
<path d="M74.1399 15.3425C73.4899 15.1368 72.7799 15.4734 72.5599 16.0813L65.06 37.123C64.84 37.7402 65.2 38.3949 65.85 38.6006C66.51 38.8063 67.21 38.4697 67.43 37.8618L74.9299 16.8201C75.1499 16.2122 74.7999 15.5482 74.1399 15.3425Z" fill="#553D67"/>
<path d="M71.91 45.8578L41.91 28.3229C41.45 28.0517 40.86 28.0891 40.45 28.4165C40.03 28.7438 39.88 29.2862 40.09 29.7631L53.84 61.3258C54.04 61.7653 54.49 62.0459 55 62.0459C55.04 62.0459 55.08 62.0459 55.12 62.0365C55.67 61.9898 56.13 61.6064 56.22 61.092L58.56 49.1122L71.36 48.0274C72.05 47.9619 72.56 47.3915 72.49 46.7368C72.45 46.3721 72.24 46.0448 71.91 45.8578ZM57.39 46.8491C56.83 46.8958 56.38 47.2886 56.28 47.803L54.54 56.706L43.86 32.2227L67.43 45.9887L57.39 46.8491Z" fill="#553D67"/>
</svg>
