<svg width="13" height="28" viewBox="0 0 13 28" fill="none" xmlns="http://www.w3.org/2000/svg">
<path fill-rule="evenodd" clip-rule="evenodd" d="M3.09084 13.871V26.8511C3.09084 27.0387 3.23746 27.1872 3.42268 27.1872H8.18424C8.36945 27.1872 8.51607 27.0387 8.51607 26.8511V13.66H11.9657C12.1355 13.66 12.2821 13.5271 12.2975 13.3474L12.6294 9.37752C12.6448 9.18215 12.4905 9.01023 12.2975 9.01023H8.51607V6.18913C8.51607 5.52488 9.04856 4.99348 9.69681 4.99348H12.3593C12.5445 4.99348 12.6911 4.84501 12.6911 4.65745V0.679781C12.6911 0.492229 12.5445 0.34375 12.3593 0.34375H7.86783C5.22852 0.34375 3.09084 2.50842 3.09084 5.18104V9.01023H0.713923C0.528708 9.01023 0.38208 9.15871 0.38208 9.34626V13.3161C0.38208 13.5037 0.528708 13.6521 0.713923 13.6521H3.09084V13.871Z" fill="#553D67"/>
</svg>
