<svg width="28" height="28" viewBox="0 0 28 28" fill="none" xmlns="http://www.w3.org/2000/svg">
<path d="M21.2518 5.15769C20.3566 5.15769 19.6235 5.89227 19.6235 6.80659C19.6235 7.71309 20.3489 8.45548 21.2518 8.45548C22.147 8.45548 22.8802 7.7209 22.8802 6.80659C22.8724 5.89227 22.147 5.15769 21.2518 5.15769ZM14.0208 7.26765C10.2547 7.26765 7.19097 10.3701 7.19097 14.1836C7.19097 17.9972 10.2547 21.0996 14.0208 21.0996C17.7868 21.0996 20.8505 17.9972 20.8505 14.1836C20.8505 10.3701 17.7868 7.26765 14.0208 7.26765ZM14.0208 18.6068C11.6052 18.6068 9.64507 16.6218 9.64507 14.1758C9.64507 11.7298 11.6052 9.74491 14.0208 9.74491C16.4363 9.74491 18.3964 11.7298 18.3964 14.1758C18.3964 16.6218 16.4363 18.6068 14.0208 18.6068ZM27.7961 8.43204C27.7961 3.77449 24.0686 0 19.4691 0H8.47976C3.88028 0 0.152832 3.77449 0.152832 8.43204V19.5601C0.152832 24.2177 3.88028 27.9922 8.47976 27.9922H19.4691C24.0686 27.9922 27.7961 24.2177 27.7961 19.5601V8.43204ZM25.1876 19.568C25.1876 22.7642 22.6255 25.3586 19.4691 25.3586H8.47976C5.3234 25.3586 2.76127 22.7642 2.76127 19.568V8.43204C2.76127 5.23584 5.3234 2.64136 8.47976 2.64136H19.4691C22.6255 2.64136 25.1876 5.23584 25.1876 8.43204V19.568Z" fill="#553D67"/>
</svg>
