<svg width="24" height="23" viewBox="0 0 24 23" fill="none" xmlns="http://www.w3.org/2000/svg">
<path d="M23.8032 13.8243V22.1703C23.8032 22.3735 23.6411 22.5454 23.4328 22.5454H19.1806C18.9799 22.5454 18.8101 22.3813 18.8101 22.1703V14.4104C18.8101 12.3707 18.0924 10.9719 16.2789 10.9719C14.8975 10.9719 14.0795 11.9097 13.7167 12.824C13.5855 13.1522 13.5547 13.5976 13.5547 14.0587V22.1781C13.5547 22.3813 13.3926 22.5533 13.1842 22.5533H8.93205C8.7314 22.5533 8.56161 22.3891 8.56161 22.1781C8.56933 20.1151 8.61564 10.081 8.56934 7.7288C8.56162 7.51781 8.73139 7.3537 8.93975 7.3537H13.1842C13.3849 7.3537 13.5547 7.51781 13.5547 7.7288V9.51055C13.547 9.52618 13.5315 9.54181 13.5238 9.55744H13.5547V9.51055C14.2184 8.47901 15.3991 7.00204 18.0538 7.00204C21.3414 6.98641 23.8032 9.15889 23.8032 13.8243ZM1.18391 22.5454H5.43613C5.63678 22.5454 5.80655 22.3813 5.80655 22.1703V7.71317C5.80655 7.50999 5.6445 7.33807 5.43613 7.33807H1.18391C0.983265 7.33807 0.813477 7.50218 0.813477 7.71317V22.1703C0.813477 22.3813 0.983265 22.5454 1.18391 22.5454Z" fill="#553D67"/>
<path d="M5.83742 2.70392C5.83742 4.19652 4.64125 5.4078 3.16726 5.4078C1.69326 5.4078 0.49707 4.19652 0.49707 2.70392C0.49707 1.21131 1.69326 3.73621e-05 3.16726 3.73621e-05C4.64125 -0.00777732 5.83742 1.21131 5.83742 2.70392Z" fill="#553D67"/>
</svg>
