<svg width="102" height="75" viewBox="0 0 102 75" fill="none" xmlns="http://www.w3.org/2000/svg">
<path d="M82.7411 40.993L74.5556 49.2017C74.4536 49.0738 74.3389 48.946 74.2114 48.8181L63.6289 38.2056C63.0424 37.6174 62.0989 37.6174 61.5124 38.2056C60.9259 38.7938 60.9259 39.7399 61.5124 40.3281L72.0949 50.9406C73.0001 51.8484 73.0001 53.3316 72.0949 54.2522C71.1896 55.16 69.7106 55.16 68.7926 54.2522L62.9149 48.3578C62.3284 47.7696 61.3849 47.7696 60.7984 48.3578C60.2119 48.946 60.2119 49.8921 60.7984 50.4803L66.6761 56.3747C67.1224 56.8222 67.3646 57.3976 67.3646 58.0241C67.3646 58.6507 67.1224 59.2388 66.6761 59.6735C66.2299 60.1211 65.6561 60.364 65.0314 60.364C64.4066 60.364 63.8201 60.1211 63.3866 59.6735L57.5089 53.7919C56.9224 53.2037 55.9789 53.2037 55.3924 53.7919C54.8059 54.3801 54.8059 55.3262 55.3924 55.9144L61.2701 61.8088C62.1754 62.7166 62.1754 64.1998 61.2701 65.1204C60.8239 65.568 60.2501 65.8109 59.6254 65.8109C59.0006 65.8109 58.4141 65.568 57.9806 65.1204L52.1029 59.226C51.5164 58.6379 50.5729 58.6379 49.9864 59.226C49.3999 59.8142 49.3999 60.7604 49.9864 61.3485L55.8641 67.2429C56.7694 68.1508 56.7694 69.634 55.8641 70.5546C55.4179 71.0021 54.8441 71.245 54.2194 71.245C53.5946 71.245 53.0081 71.0021 52.5746 70.5546L48.7624 66.7315C49.9736 64.6985 49.7186 62.0262 47.9719 60.2873L47.8699 60.185C46.7096 59.0214 45.1414 58.5228 43.6241 58.6634C43.5349 57.3848 42.9994 56.2085 42.0941 55.2879C41.3929 54.5846 40.5386 54.1244 39.6334 53.8942C39.8629 53.2933 39.9904 52.6539 39.9904 51.9891C39.9904 50.5826 39.4421 49.2528 38.4476 48.2555C37.4531 47.2582 36.1271 46.7084 34.7246 46.7084C33.9214 46.7084 33.1564 46.8874 32.4551 47.2198C32.2129 46.3759 31.7794 45.5832 31.1164 44.9311C29.0636 42.8725 25.7231 42.8725 23.6704 44.9311L23.0584 45.5448L22.6121 45.0973C21.8854 44.3685 21.4901 43.4096 21.4901 42.3739V38.4613C21.4901 38.0649 21.3371 37.6814 21.0566 37.4001L14.6689 30.9942L16.4666 29.1914C17.0531 28.6032 17.0531 27.657 16.4666 27.0689C15.8801 26.4807 14.9366 26.4807 14.3501 27.0689L11.9404 29.4854C11.4814 29.9457 10.7419 29.9457 10.2956 29.4854L2.55637 21.7882C1.96987 21.2 1.02637 21.2 0.439875 21.7882C-0.146625 22.3763 -0.146625 23.3225 0.439875 23.9107L8.14087 31.6335C8.95687 32.4518 10.0151 32.8482 11.0861 32.8482C11.4304 32.8482 11.7619 32.797 12.0934 32.7203L18.4684 39.1134V42.4122C18.4684 44.2407 19.1824 45.954 20.4701 47.2582L20.9164 47.7057L20.4191 48.2044C19.4246 49.2017 18.8764 50.5314 18.8764 51.9379C18.8764 53.3444 19.4246 54.6742 20.4191 55.6715C21.4391 56.6944 22.7906 57.2186 24.1421 57.2186C24.1676 57.2186 24.1804 57.2186 24.2059 57.2186C24.2059 57.2442 24.2059 57.257 24.2059 57.2825C24.2059 58.689 24.7541 60.0188 25.7486 61.0161C26.7431 62.0134 28.0691 62.5632 29.4716 62.5632C29.4971 62.5632 29.5099 62.5632 29.5354 62.5632C29.5226 63.9313 30.0326 65.3122 31.0781 66.3607C32.0981 67.3836 33.4496 67.9078 34.8011 67.9078C34.8266 67.9078 34.8394 67.9078 34.8649 67.9078C34.8521 69.2759 35.3621 70.6568 36.4076 71.7053L36.4969 71.7948C37.4914 72.7921 38.8174 73.3419 40.2199 73.3419C41.6224 73.3419 42.9484 72.7921 43.9429 71.7948L46.7479 68.9819L50.4454 72.6898C51.4526 73.7 52.7914 74.2498 54.2066 74.2498C55.6346 74.2498 56.9606 73.7 57.9679 72.6898C59.0261 71.6286 59.5489 70.2221 59.5234 68.8156C59.5489 68.8156 59.5871 68.8156 59.6126 68.8156C61.0406 68.8156 62.3666 68.2658 63.3739 67.2557C64.4321 66.1945 64.9549 64.788 64.9294 63.3815C64.9549 63.3815 64.9931 63.3815 65.0186 63.3815C66.3829 63.3815 67.7471 62.8573 68.7799 61.8216C69.7871 60.8115 70.3354 59.469 70.3354 58.0497C70.3354 58.0241 70.3354 57.9858 70.3354 57.9602C70.3609 57.9602 70.3991 57.9602 70.4246 57.9602C71.7889 57.9602 73.1531 57.436 74.1859 56.4003C75.3206 55.2623 75.8306 53.7536 75.7286 52.2704L84.8321 43.141C85.4186 42.5529 85.4186 41.6067 84.8321 41.0185C84.2711 40.4048 83.3276 40.4048 82.7411 40.993ZM22.5484 53.549C22.1149 53.1142 21.8854 52.5517 21.8854 51.9379C21.8854 51.3242 22.1276 50.7616 22.5484 50.3269L25.7869 47.0792C26.2331 46.6317 26.8069 46.4143 27.3934 46.4143C27.9799 46.4143 28.5536 46.6317 28.9999 47.0792C29.8796 47.9614 29.8796 49.4063 28.9999 50.3013L25.7614 53.549C24.8689 54.4312 23.4281 54.4312 22.5484 53.549ZM29.4716 59.5457C28.8596 59.5457 28.2986 59.3027 27.8651 58.8808C27.4316 58.4461 27.2021 57.8835 27.2021 57.2697C27.2021 56.656 27.4444 56.0934 27.8651 55.6587L31.1036 52.411L33.1181 50.3908C33.5516 49.9561 34.1126 49.7259 34.7246 49.7259C35.3366 49.7259 35.8976 49.9689 36.3311 50.3908C36.7646 50.8255 36.9941 51.3881 36.9941 52.0018C36.9941 52.6156 36.7519 53.1782 36.3311 53.6129L31.0781 58.8808C30.6446 59.3155 30.0709 59.5457 29.4716 59.5457ZM33.1946 64.2254C32.3149 63.3432 32.3149 61.8983 33.1946 61.0033L36.7646 57.4232C37.2109 56.9757 37.7846 56.7583 38.3711 56.7583C38.9576 56.7583 39.5314 56.9757 39.9776 57.4232C40.4111 57.8579 40.6406 58.4205 40.6406 59.0342C40.6406 59.6352 40.4111 60.2106 39.9776 60.6453L36.4076 64.2254C35.5151 65.1077 34.0744 65.1077 33.1946 64.2254ZM41.8136 69.6595C41.3801 70.0943 40.8191 70.3244 40.2071 70.3244C39.5951 70.3244 39.0341 70.0815 38.6006 69.6595L38.5114 69.57C37.6316 68.6878 37.6316 67.2429 38.5114 66.3479L42.0814 62.7678L42.5276 62.3203C42.9739 61.8728 43.5476 61.6554 44.1341 61.6554C44.7206 61.6554 45.2944 61.8728 45.7406 62.3203L45.8299 62.4098C46.7096 63.292 46.7096 64.7369 45.8299 65.6319L41.8136 69.6595Z" fill="#553D67"/>
<path d="M101.573 28.1172C100.986 27.5291 100.043 27.5291 99.4563 28.1172L93.8463 33.7431C93.7698 33.8199 93.6423 33.8199 93.5658 33.7431L73.7268 14.7429C73.6886 14.7045 73.6631 14.6534 73.6631 14.6022C73.6631 14.5511 73.6886 14.4999 73.7268 14.4616L85.4823 2.64713C86.0688 2.05896 86.0688 1.11278 85.4823 0.52462C84.8958 -0.0635451 83.9523 -0.0635451 83.3658 0.52462L71.5976 12.3263C70.9856 12.94 70.6541 13.7583 70.6668 14.6278C70.6796 15.331 70.9091 15.9959 71.3298 16.5329L65.9493 21.8264L60.8748 18.9879C60.2118 18.6171 59.4596 18.4253 58.7073 18.4253H44.2998L43.2033 17.3257C42.1833 16.3028 40.9848 15.5228 39.6333 15.0114L35.6426 13.4898L33.7938 11.6358C34.7501 10.0375 34.5461 7.92782 33.1691 6.54692L27.1638 0.52462C26.5773 -0.0635451 25.6338 -0.0635451 25.0473 0.52462C24.4608 1.11278 24.4608 2.05896 25.0473 2.64713L31.0526 8.66942C31.5116 9.12973 31.5116 9.87132 31.0526 10.3188L18.8381 22.568C18.2516 23.1562 18.2516 24.1024 18.8381 24.6905C19.1313 24.9846 19.5138 25.1252 19.8963 25.1252C20.2788 25.1252 20.6613 24.9846 20.9546 24.6905L31.7666 13.8478L33.7428 15.8297C33.8958 15.9831 34.0743 16.0982 34.2656 16.1749L38.5496 17.8115C39.4803 18.1696 40.2963 18.6938 41.0103 19.397C40.9211 19.4738 40.8318 19.5505 40.7426 19.64L35.0433 25.3554C33.9086 26.4934 33.2966 27.9894 33.2966 29.6004C33.2966 31.2115 33.9213 32.7075 35.0433 33.8454C36.2163 35.0218 37.7336 35.6099 39.2763 35.6099C40.6151 35.6099 41.9666 35.1624 43.0758 34.2418L47.3853 30.6872H51.8733L56.9988 35.8273C57.2921 36.1214 57.6746 36.262 58.0571 36.262C58.4396 36.262 58.8221 36.1214 59.1153 35.8273C59.7018 35.2391 59.7018 34.2929 59.1153 33.7048L55.4051 29.984C55.5581 29.7538 55.6346 29.4726 55.6346 29.1785C55.6346 28.3474 54.9588 27.6825 54.1428 27.6825H46.8371C46.4928 27.6825 46.1486 27.7976 45.8808 28.0277L41.1633 31.9275C39.9648 32.912 38.2436 32.8225 37.1471 31.7357C36.5861 31.1731 36.2673 30.4187 36.2673 29.6132C36.2673 28.8077 36.5733 28.0661 37.1471 27.4907L42.8463 21.7753C43.0631 21.5579 43.3436 21.4428 43.6496 21.4428H58.6818C58.9368 21.4428 59.1791 21.5068 59.3958 21.6346L65.0058 24.7672C65.8346 25.2275 66.8928 25.0869 67.5813 24.422L73.4463 18.6554L89.5878 34.1267L87.2418 36.4794C86.6553 37.0675 86.6553 38.0137 87.2418 38.6019C87.5351 38.896 87.9176 39.0366 88.3001 39.0366C88.6826 39.0366 89.0651 38.896 89.3583 38.6019L91.7808 36.1725C92.3418 36.5945 93.0176 36.799 93.6806 36.799C94.4966 36.799 95.3253 36.4922 95.9373 35.8656L101.547 30.2397C102.147 29.6516 102.147 28.6926 101.573 28.1172Z" fill="#553D67"/>
</svg>
