<svg width="75" height="76" viewBox="0 0 75 76" fill="none" xmlns="http://www.w3.org/2000/svg">
<path d="M37.5 0.0836182C16.7862 0.0836182 0 16.9032 0 37.6581C0 58.4131 16.7862 75.2327 37.5 75.2327C58.2138 75.2327 75 58.4131 75 37.6581C74.9803 16.913 58.2039 0.103394 37.5 0.0836182ZM37.5 72.731C18.1678 72.731 2.49671 57.0288 2.49671 37.6581C2.49671 18.2875 18.1678 2.58529 37.5 2.58529C56.8322 2.58529 72.5033 18.2875 72.5033 37.6581C72.4737 57.0189 56.8224 72.7013 37.5 72.731Z" fill="#553D67"/>
<path d="M37.4999 6.34277C20.24 6.34277 6.24658 20.364 6.24658 37.6581C6.24658 54.9523 20.24 68.9735 37.4999 68.9735C54.7598 68.9735 68.7532 54.9523 68.7532 37.6581C68.7334 20.3739 54.7499 6.36255 37.4999 6.34277ZM37.4999 66.462C21.6216 66.462 8.75316 53.568 8.75316 37.6581C8.75316 21.7483 21.6216 8.85433 37.4999 8.85433C53.3782 8.85433 66.2466 21.7483 66.2466 37.6581C66.2367 53.5581 53.3683 66.4521 37.4999 66.462Z" fill="#553D67"/>
<path d="M38.7433 12.6118H36.2466V15.1134H38.7433V12.6118Z" fill="#553D67"/>
<path d="M38.7433 60.2028H36.2466V62.7045H38.7433V60.2028Z" fill="#553D67"/>
<path d="M26.0791 15.3393L23.917 16.5905L25.1656 18.7569L27.3278 17.5058L26.0791 15.3393Z" fill="#553D67"/>
<path d="M49.8243 56.5554L47.6621 57.8065L48.9107 59.973L51.0729 58.7219L49.8243 56.5554Z" fill="#553D67"/>
<path d="M16.471 24.0514L15.2227 26.2178L17.3848 27.4686L18.6332 25.3022L16.471 24.0514Z" fill="#553D67"/>
<path d="M57.6011 47.8531L56.3528 50.0197L58.5149 51.2706L59.7633 49.104L57.6011 47.8531Z" fill="#553D67"/>
<path d="M15.0001 36.4023H12.5034V38.9041H15.0001V36.4023Z" fill="#553D67"/>
<path d="M62.4967 36.4023H60V38.9041H62.4967V36.4023Z" fill="#553D67"/>
<path d="M17.387 47.8514L15.2246 49.1019L16.4727 51.2685L18.6351 50.018L17.387 47.8514Z" fill="#553D67"/>
<path d="M58.5157 24.0503L56.3535 25.3011L57.6019 27.4676L59.764 26.2167L58.5157 24.0503Z" fill="#553D67"/>
<path d="M25.1563 56.5525L23.9077 58.7189L26.0699 59.9699L27.3185 57.8035L25.1563 56.5525Z" fill="#553D67"/>
<path d="M48.9075 15.3426L47.6589 17.509L49.8211 18.7601L51.0697 16.5937L48.9075 15.3426Z" fill="#553D67"/>
<path d="M36.2467 17.6151V36.9461L24.3552 44.0951L25.6381 46.2408L38.1414 38.726C38.5164 38.4986 38.7434 38.0931 38.7434 37.6482V17.6151H36.2467Z" fill="#553D67"/>
</svg>
