<svg width="27" height="22" viewBox="0 0 27 22" fill="none" xmlns="http://www.w3.org/2000/svg">
<path d="M25.9436 2.59528C25.1255 2.97038 24.2226 3.19701 23.3428 3.34549C23.7596 3.27516 24.3769 2.5015 24.6239 2.19673C25.002 1.72003 25.3185 1.18082 25.4882 0.594721C25.5114 0.547833 25.5268 0.49313 25.4805 0.454057C25.4265 0.430613 25.3879 0.446242 25.3416 0.461871C24.3538 0.99327 23.3351 1.384 22.247 1.65752C22.1544 1.68096 22.0926 1.65752 22.0309 1.60281C21.9383 1.50122 21.8534 1.39963 21.7608 1.32149C21.3055 0.930752 20.8116 0.618165 20.2637 0.391539C19.5382 0.0945815 18.7433 -0.0382683 17.9639 0.0164345C17.2076 0.0633226 16.459 0.282134 15.7876 0.641609C15.1085 1.00108 14.5066 1.49341 14.0281 2.09514C13.5342 2.7125 13.1638 3.44708 12.9785 4.22855C12.8011 4.97876 12.8088 5.72115 12.9245 6.47918C12.94 6.60421 12.9322 6.61984 12.8165 6.60421C8.57199 5.96341 5.0452 4.42391 2.18981 1.12612C2.06634 0.985455 1.99688 0.985455 1.89656 1.13393C0.646361 3.0329 1.25603 6.08063 2.81491 7.58105C3.02328 7.78423 3.23936 7.97959 3.47088 8.15933C3.38599 8.17496 2.34416 8.06556 1.41809 7.58105C1.29461 7.5029 1.23287 7.54979 1.21744 7.69045C1.20972 7.89363 1.22516 8.08119 1.24831 8.30781C1.48754 10.2302 2.8072 12.012 4.60532 12.7075C4.8214 12.8013 5.05292 12.8794 5.28444 12.9185C4.87542 13.0122 4.45097 13.0748 3.27023 12.981C3.1236 12.9497 3.06958 13.0279 3.1236 13.1685C4.01109 15.6145 5.91725 16.3413 7.35266 16.7477C7.5456 16.7789 7.73853 16.7789 7.93146 16.8258C7.92374 16.8414 7.90831 16.8414 7.90059 16.8571C7.42984 17.5917 5.77834 18.1309 5.01433 18.4044C3.61751 18.8967 2.10492 19.1155 0.630926 18.9748C0.391691 18.9436 0.345387 18.9436 0.283649 18.9748C0.221911 19.0139 0.275932 19.0686 0.353104 19.1311C0.654078 19.3343 0.955051 19.5062 1.26374 19.6782C2.19753 20.1783 3.17762 20.5769 4.1963 20.866C9.45947 22.3352 15.3941 21.2567 19.3453 17.2791C22.4476 14.1532 23.5358 9.8473 23.5358 5.5336C23.5358 5.36168 23.7364 5.2679 23.8522 5.18194C24.6625 4.56458 25.303 3.83 25.905 3.00946C26.0439 2.8219 26.0284 2.6578 26.0284 2.59528C26.0284 2.58746 26.0284 2.57184 26.0284 2.57184C26.0362 2.52495 26.0516 2.54839 25.9436 2.59528Z" fill="#553D67"/>
</svg>
